<svg width="120" height="120" viewBox="0 0 48 48" fill="none" xmlns="http://www.w3.org/2000/svg">
<g clip-path="url(#clip0_32_27)">
<path d="M45 5H3C1.89543 5 1 5.89543 1 7V41C1 42.1046 1.89543 43 3 43H45C46.1046 43 47 42.1046 47 41V7C47 5.89543 46.1046 5 45 5Z" fill="#D9D9D9"/>
<path d="M45 4H3C2.20435 4 1.44129 4.31607 0.87868 4.87868C0.31607 5.44129 0 6.20435 0 7L0 41C0 41.7957 0.31607 42.5587 0.87868 43.1213C1.44129 43.6839 2.20435 44 3 44H45C45.7957 44 46.5587 43.6839 47.1213 43.1213C47.6839 42.5587 48 41.7957 48 41V7C48 6.20435 47.6839 5.44129 47.1213 4.87868C46.5587 4.31607 45.7957 4 45 4ZM46 41C46 41.2652 45.8946 41.5196 45.7071 41.7071C45.5196 41.8946 45.2652 42 45 42H3C2.73478 42 2.48043 41.8946 2.29289 41.7071C2.10536 41.5196 2 41.2652 2 41V7C2 6.73478 2.10536 6.48043 2.29289 6.29289C2.48043 6.10536 2.73478 6 3 6H45C45.2652 6 45.5196 6.10536 45.7071 6.29289C45.8946 6.48043 46 6.73478 46 7V41Z" fill="black"/>
<path d="M26 8V9H6V8H4V12H6V11H26V12H28V8H26ZM26 15H6V14H4V18H6V17H26V18H28V14H26V15ZM32 8H36V10H32V8ZM40 8H44V10H40V8Z" fill="white"/>
<path d="M43 12H33C32.4477 12 32 12.4477 32 13V17C32 17.5523 32.4477 18 33 18H43C43.5523 18 44 17.5523 44 17V13C44 12.4477 43.5523 12 43 12Z" fill="#FF4040"/>
<path d="M42 20H44V38H42V20ZM32 20H34V38H32V20Z" fill="white"/>
<path d="M19 21H5C4.44772 21 4 21.4477 4 22V36C4 36.5523 4.44772 37 5 37H19C19.5523 37 20 36.5523 20 36V22C20 21.4477 19.5523 21 19 21Z" fill="white"/>
<path d="M9 40H17C17.2652 40 17.5196 40.1054 17.7071 40.2929C17.8946 40.4804 18 40.7348 18 41V42H8V41C8 40.7348 8.10536 40.4804 8.29289 40.2929C8.48043 40.1054 8.73478 40 9 40ZM21 40H23C23.2652 40 23.5196 40.1054 23.7071 40.2929C23.8946 40.4804 24 40.7348 24 41V42H20V41C20 40.7348 20.1054 40.4804 20.2929 40.2929C20.4804 40.1054 20.7348 40 21 40ZM27 40H29C29.2652 40 29.5196 40.1054 29.7071 40.2929C29.8946 40.4804 30 40.7348 30 41V42H26V41C26 40.7348 26.1054 40.4804 26.2929 40.2929C26.4804 40.1054 26.7348 40 27 40ZM33 40H35C35.2652 40 35.5196 40.1054 35.7071 40.2929C35.8946 40.4804 36 40.7348 36 41V42H32V41C32 40.7348 32.1054 40.4804 32.2929 40.2929C32.4804 40.1054 32.7348 40 33 40Z" fill="white"/>
<path d="M28 29H24C23.4477 29 23 29.4477 23 30V36C23 36.5523 23.4477 37 24 37H28C28.5523 37 29 36.5523 29 36V30C29 29.4477 28.5523 29 28 29Z" fill="#FF4040"/>
<path d="M39 21C39 20.7348 38.8946 20.4804 38.7071 20.2929C38.5196 20.1054 38.2652 20 38 20C37.7348 20 37.4804 20.1054 37.2929 20.2929C37.1054 20.4804 37 20.7348 37 21C37 21.2652 37.1054 21.5196 37.2929 21.7071C37.4804 21.8946 37.7348 22 38 22C38.2652 22 38.5196 21.8946 38.7071 21.7071C38.8946 21.5196 39 21.2652 39 21ZM30 21C30 20.7348 29.8946 20.4804 29.7071 20.2929C29.5196 20.1054 29.2652 20 29 20C28.7348 20 28.4804 20.1054 28.2929 20.2929C28.1054 20.4804 28 20.7348 28 21C28 21.2652 28.1054 21.5196 28.2929 21.7071C28.4804 21.8946 28.7348 22 29 22C29.2652 22 29.5196 21.8946 29.7071 21.7071C29.8946 21.5196 30 21.2652 30 21ZM23 20C23 19.7348 22.8946 19.4804 22.7071 19.2929C22.5196 19.1054 22.2652 19 22 19C21.7348 19 21.4804 19.1054 21.2929 19.2929C21.1054 19.4804 21 19.7348 21 20C21 20.2652 21.1054 20.5196 21.2929 20.7071C21.4804 20.8946 21.7348 21 22 21C22.2652 21 22.5196 20.8946 22.7071 20.7071C22.8946 20.5196 23 20.2652 23 20ZM39 25C39 24.7348 38.8946 24.4804 38.7071 24.2929C38.5196 24.1054 38.2652 24 38 24C37.7348 24 37.4804 24.1054 37.2929 24.2929C37.1054 24.4804 37 24.7348 37 25C37 25.2652 37.1054 25.5196 37.2929 25.7071C37.4804 25.8946 37.7348 26 38 26C38.2652 26 38.5196 25.8946 38.7071 25.7071C38.8946 25.5196 39 25.2652 39 25ZM40 39C40 38.7348 39.8946 38.4804 39.7071 38.2929C39.5196 38.1054 39.2652 38 39 38C38.7348 38 38.4804 38.1054 38.2929 38.2929C38.1054 38.4804 38 38.7348 38 39C38 39.2652 38.1054 39.5196 38.2929 39.7071C38.4804 39.8946 38.7348 40 39 40C39.2652 40 39.5196 39.8946 39.7071 39.7071C39.8946 39.5196 40 39.2652 40 39ZM27 24C27 23.7348 26.8946 23.4804 26.7071 23.2929C26.5196 23.1054 26.2652 23 26 23C25.7348 23 25.4804 23.1054 25.2929 23.2929C25.1054 23.4804 25 23.7348 25 24C25 24.2652 25.1054 24.5196 25.2929 24.7071C25.4804 24.8946 25.7348 25 26 25C26.2652 25 26.5196 24.8946 26.7071 24.7071C26.8946 24.5196 27 24.2652 27 24Z" fill="#FF4040"/>
</g>
<defs>
<clipPath id="clip0_32_27">
<rect width="48" height="48" fill="white"/>
</clipPath>
</defs>
</svg>
