<svg xmlns="http://www.w3.org/2000/svg" xmlns:xlink="http://www.w3.org/1999/xlink" width="500" zoomAndPan="magnify" viewBox="0 0 375 374.999991" height="500" preserveAspectRatio="xMidYMid meet" version="1.0"><defs><g/><clipPath id="id1"><path d="M 147.132812 111.390625 L 228.132812 111.390625 L 228.132812 188.640625 L 147.132812 188.640625 Z M 147.132812 111.390625 " clip-rule="nonzero"/></clipPath><clipPath id="id2"><path d="M 190.394531 155.765625 L 190.394531 121.285156 C 190.394531 119.945312 191.667969 118.980469 192.957031 119.339844 L 226.65625 128.804688 C 227.527344 129.050781 228.128906 129.84375 228.128906 130.75 L 228.128906 165.230469 C 228.128906 166.566406 226.851562 167.535156 225.566406 167.175781 L 191.867188 157.707031 C 190.996094 157.464844 190.394531 156.667969 190.394531 155.765625 Z M 164.957031 133.367188 L 182.308594 138.242188 C 183.59375 138.605469 184.867188 137.636719 184.867188 136.300781 L 184.867188 118.574219 C 184.867188 117.667969 184.265625 116.875 183.398438 116.632812 L 166.046875 111.757812 C 164.757812 111.394531 163.484375 112.363281 163.484375 113.699219 L 163.484375 131.425781 C 163.484375 132.332031 164.085938 133.125 164.957031 133.367188 Z M 183.398438 142.339844 L 149.695312 132.871094 C 148.410156 132.511719 147.136719 133.480469 147.136719 134.816406 L 147.136719 169.296875 C 147.136719 170.203125 147.738281 170.996094 148.605469 171.238281 L 182.308594 180.707031 C 183.59375 181.066406 184.867188 180.101562 184.867188 178.761719 L 184.867188 144.28125 C 184.867188 143.378906 184.265625 142.582031 183.398438 142.339844 Z M 210.308594 166.675781 L 192.957031 161.804688 C 191.667969 161.441406 190.394531 162.410156 190.394531 163.746094 L 190.394531 181.472656 C 190.394531 182.375 190.996094 183.171875 191.867188 183.414062 L 209.21875 188.289062 C 210.503906 188.652344 211.777344 187.683594 211.777344 186.347656 L 211.777344 168.621094 C 211.777344 167.714844 211.175781 166.921875 210.308594 166.675781 Z M 210.308594 166.675781 " clip-rule="nonzero"/></clipPath><linearGradient x1="114.296455" gradientTransform="matrix(0.00000000000000001, 0.162154, -0.161984, 0.00000000000000001, 228.127239, 111.680597)" y1="-47.633938" x2="358.610875" gradientUnits="userSpaceOnUse" y2="547.607279" id="id3"><stop stop-opacity="1" stop-color="rgb(77.598572%, 30.999756%, 100%)" offset="0"/><stop stop-opacity="1" stop-color="rgb(77.598572%, 30.999756%, 100%)" offset="0.0625"/><stop stop-opacity="1" stop-color="rgb(77.540588%, 30.987549%, 100%)" offset="0.09375"/><stop stop-opacity="1" stop-color="rgb(77.328491%, 30.941772%, 100%)" offset="0.101562"/><stop stop-opacity="1" stop-color="rgb(77.018738%, 30.874634%, 100%)" offset="0.109375"/><stop stop-opacity="1" stop-color="rgb(76.708984%, 30.809021%, 100%)" offset="0.117187"/><stop stop-opacity="1" stop-color="rgb(76.399231%, 30.741882%, 100%)" offset="0.125"/><stop stop-opacity="1" stop-color="rgb(76.089478%, 30.674744%, 100%)" offset="0.132812"/><stop stop-opacity="1" stop-color="rgb(75.779724%, 30.609131%, 100%)" offset="0.140625"/><stop stop-opacity="1" stop-color="rgb(75.469971%, 30.541992%, 100%)" offset="0.148438"/><stop stop-opacity="1" stop-color="rgb(75.160217%, 30.476379%, 100%)" offset="0.15625"/><stop stop-opacity="1" stop-color="rgb(74.850464%, 30.409241%, 100%)" offset="0.164062"/><stop stop-opacity="1" stop-color="rgb(74.54071%, 30.343628%, 100%)" offset="0.171875"/><stop stop-opacity="1" stop-color="rgb(74.230957%, 30.276489%, 100%)" offset="0.179687"/><stop stop-opacity="1" stop-color="rgb(73.919678%, 30.210876%, 100%)" offset="0.1875"/><stop stop-opacity="1" stop-color="rgb(73.609924%, 30.143738%, 100%)" offset="0.195312"/><stop stop-opacity="1" stop-color="rgb(73.300171%, 30.078125%, 100%)" offset="0.203125"/><stop stop-opacity="1" stop-color="rgb(72.990417%, 30.010986%, 100%)" offset="0.210937"/><stop stop-opacity="1" stop-color="rgb(72.680664%, 29.945374%, 100%)" offset="0.21875"/><stop stop-opacity="1" stop-color="rgb(72.370911%, 29.878235%, 100%)" offset="0.226562"/><stop stop-opacity="1" stop-color="rgb(72.061157%, 29.812622%, 100%)" offset="0.234375"/><stop stop-opacity="1" stop-color="rgb(71.751404%, 29.745483%, 100%)" offset="0.242187"/><stop stop-opacity="1" stop-color="rgb(71.44165%, 29.679871%, 100%)" offset="0.25"/><stop stop-opacity="1" stop-color="rgb(71.131897%, 29.612732%, 100%)" offset="0.257812"/><stop stop-opacity="1" stop-color="rgb(70.822144%, 29.547119%, 100%)" offset="0.265625"/><stop stop-opacity="1" stop-color="rgb(70.51239%, 29.47998%, 100%)" offset="0.273438"/><stop stop-opacity="1" stop-color="rgb(70.201111%, 29.414368%, 100%)" offset="0.281113"/><stop stop-opacity="1" stop-color="rgb(70.046997%, 29.380798%, 100%)" offset="0.28125"/><stop stop-opacity="1" stop-color="rgb(69.891357%, 29.347229%, 100%)" offset="0.289062"/><stop stop-opacity="1" stop-color="rgb(69.581604%, 29.281616%, 100%)" offset="0.296875"/><stop stop-opacity="1" stop-color="rgb(69.271851%, 29.214478%, 100%)" offset="0.304688"/><stop stop-opacity="1" stop-color="rgb(68.962097%, 29.148865%, 100%)" offset="0.3125"/><stop stop-opacity="1" stop-color="rgb(68.652344%, 29.081726%, 100%)" offset="0.320312"/><stop stop-opacity="1" stop-color="rgb(68.34259%, 29.016113%, 100%)" offset="0.328125"/><stop stop-opacity="1" stop-color="rgb(68.032837%, 28.948975%, 100%)" offset="0.335938"/><stop stop-opacity="1" stop-color="rgb(67.723083%, 28.883362%, 100%)" offset="0.34375"/><stop stop-opacity="1" stop-color="rgb(67.41333%, 28.816223%, 100%)" offset="0.351562"/><stop stop-opacity="1" stop-color="rgb(67.103577%, 28.75061%, 100%)" offset="0.359375"/><stop stop-opacity="1" stop-color="rgb(66.793823%, 28.683472%, 100%)" offset="0.367188"/><stop stop-opacity="1" stop-color="rgb(66.48407%, 28.616333%, 100%)" offset="0.375"/><stop stop-opacity="1" stop-color="rgb(66.172791%, 28.55072%, 100%)" offset="0.382812"/><stop stop-opacity="1" stop-color="rgb(65.863037%, 28.483582%, 100%)" offset="0.390625"/><stop stop-opacity="1" stop-color="rgb(65.553284%, 28.417969%, 100%)" offset="0.398438"/><stop stop-opacity="1" stop-color="rgb(65.24353%, 28.35083%, 100%)" offset="0.40625"/><stop stop-opacity="1" stop-color="rgb(64.933777%, 28.285217%, 100%)" offset="0.414062"/><stop stop-opacity="1" stop-color="rgb(64.624023%, 28.218079%, 100%)" offset="0.421875"/><stop stop-opacity="1" stop-color="rgb(64.31427%, 28.152466%, 100%)" offset="0.429688"/><stop stop-opacity="1" stop-color="rgb(64.004517%, 28.085327%, 100%)" offset="0.4375"/><stop stop-opacity="1" stop-color="rgb(63.694763%, 28.019714%, 100%)" offset="0.445312"/><stop stop-opacity="1" stop-color="rgb(63.38501%, 27.952576%, 100%)" offset="0.453125"/><stop stop-opacity="1" stop-color="rgb(63.075256%, 27.886963%, 100%)" offset="0.460938"/><stop stop-opacity="1" stop-color="rgb(62.765503%, 27.819824%, 100%)" offset="0.46875"/><stop stop-opacity="1" stop-color="rgb(62.45575%, 27.754211%, 100%)" offset="0.476562"/><stop stop-opacity="1" stop-color="rgb(62.14447%, 27.687073%, 100%)" offset="0.484375"/><stop stop-opacity="1" stop-color="rgb(61.834717%, 27.62146%, 100%)" offset="0.492188"/><stop stop-opacity="1" stop-color="rgb(61.524963%, 27.554321%, 100%)" offset="0.5"/><stop stop-opacity="1" stop-color="rgb(61.21521%, 27.488708%, 100%)" offset="0.507812"/><stop stop-opacity="1" stop-color="rgb(60.905457%, 27.42157%, 100%)" offset="0.515625"/><stop stop-opacity="1" stop-color="rgb(60.595703%, 27.355957%, 100%)" offset="0.523438"/><stop stop-opacity="1" stop-color="rgb(60.28595%, 27.288818%, 100%)" offset="0.53125"/><stop stop-opacity="1" stop-color="rgb(59.976196%, 27.223206%, 100%)" offset="0.539062"/><stop stop-opacity="1" stop-color="rgb(59.666443%, 27.156067%, 100%)" offset="0.546875"/><stop stop-opacity="1" stop-color="rgb(59.356689%, 27.090454%, 100%)" offset="0.554688"/><stop stop-opacity="1" stop-color="rgb(59.046936%, 27.023315%, 100%)" offset="0.5625"/><stop stop-opacity="1" stop-color="rgb(58.737183%, 26.957703%, 100%)" offset="0.570312"/><stop stop-opacity="1" stop-color="rgb(58.425903%, 26.890564%, 100%)" offset="0.578125"/><stop stop-opacity="1" stop-color="rgb(58.11615%, 26.824951%, 100%)" offset="0.585938"/><stop stop-opacity="1" stop-color="rgb(57.806396%, 26.757812%, 100%)" offset="0.59375"/><stop stop-opacity="1" stop-color="rgb(57.496643%, 26.690674%, 100%)" offset="0.601562"/><stop stop-opacity="1" stop-color="rgb(57.18689%, 26.625061%, 100%)" offset="0.609375"/><stop stop-opacity="1" stop-color="rgb(56.877136%, 26.557922%, 100%)" offset="0.617188"/><stop stop-opacity="1" stop-color="rgb(56.567383%, 26.49231%, 100%)" offset="0.625"/><stop stop-opacity="1" stop-color="rgb(56.257629%, 26.425171%, 100%)" offset="0.632812"/><stop stop-opacity="1" stop-color="rgb(55.947876%, 26.359558%, 100%)" offset="0.640625"/><stop stop-opacity="1" stop-color="rgb(55.638123%, 26.292419%, 100%)" offset="0.648438"/><stop stop-opacity="1" stop-color="rgb(55.328369%, 26.226807%, 100%)" offset="0.65625"/><stop stop-opacity="1" stop-color="rgb(55.018616%, 26.159668%, 100%)" offset="0.664062"/><stop stop-opacity="1" stop-color="rgb(54.708862%, 26.094055%, 100%)" offset="0.671875"/><stop stop-opacity="1" stop-color="rgb(54.397583%, 26.026917%, 100%)" offset="0.679688"/><stop stop-opacity="1" stop-color="rgb(54.08783%, 25.961304%, 100%)" offset="0.6875"/><stop stop-opacity="1" stop-color="rgb(53.778076%, 25.894165%, 100%)" offset="0.695312"/><stop stop-opacity="1" stop-color="rgb(53.468323%, 25.828552%, 100%)" offset="0.703125"/><stop stop-opacity="1" stop-color="rgb(53.158569%, 25.761414%, 100%)" offset="0.710938"/><stop stop-opacity="1" stop-color="rgb(52.848816%, 25.695801%, 100%)" offset="0.71875"/><stop stop-opacity="1" stop-color="rgb(52.539062%, 25.628662%, 100%)" offset="0.718887"/><stop stop-opacity="1" stop-color="rgb(52.384949%, 25.596619%, 100%)" offset="0.726562"/><stop stop-opacity="1" stop-color="rgb(52.229309%, 25.563049%, 100%)" offset="0.734375"/><stop stop-opacity="1" stop-color="rgb(51.919556%, 25.495911%, 100%)" offset="0.742188"/><stop stop-opacity="1" stop-color="rgb(51.609802%, 25.430298%, 100%)" offset="0.75"/><stop stop-opacity="1" stop-color="rgb(51.300049%, 25.363159%, 100%)" offset="0.757812"/><stop stop-opacity="1" stop-color="rgb(50.990295%, 25.297546%, 100%)" offset="0.765625"/><stop stop-opacity="1" stop-color="rgb(50.679016%, 25.230408%, 100%)" offset="0.773437"/><stop stop-opacity="1" stop-color="rgb(50.369263%, 25.164795%, 100%)" offset="0.78125"/><stop stop-opacity="1" stop-color="rgb(50.059509%, 25.097656%, 100%)" offset="0.789062"/><stop stop-opacity="1" stop-color="rgb(49.749756%, 25.032043%, 100%)" offset="0.796875"/><stop stop-opacity="1" stop-color="rgb(49.440002%, 24.964905%, 100%)" offset="0.804687"/><stop stop-opacity="1" stop-color="rgb(49.130249%, 24.899292%, 100%)" offset="0.8125"/><stop stop-opacity="1" stop-color="rgb(48.820496%, 24.832153%, 100%)" offset="0.820312"/><stop stop-opacity="1" stop-color="rgb(48.510742%, 24.765015%, 100%)" offset="0.828125"/><stop stop-opacity="1" stop-color="rgb(48.277283%, 24.716187%, 100%)" offset="0.84375"/><stop stop-opacity="1" stop-color="rgb(48.199463%, 24.699402%, 100%)" offset="0.875"/><stop stop-opacity="1" stop-color="rgb(48.199463%, 24.699402%, 100%)" offset="1"/></linearGradient></defs><g fill="#000000" fill-opacity="1"><g transform="translate(115.085011, 236.978744)"><g><path d="M 2.328125 0 C 1.972656 0 1.796875 -0.175781 1.796875 -0.53125 L 1.890625 -0.921875 L 13.109375 -31.9375 C 13.203125 -32.207031 13.320312 -32.390625 13.46875 -32.484375 C 13.613281 -32.585938 13.816406 -32.640625 14.078125 -32.640625 L 18.53125 -32.640625 C 19.082031 -32.640625 19.445312 -32.394531 19.625 -31.90625 L 30.75 -0.875 C 30.78125 -0.820312 30.796875 -0.722656 30.796875 -0.578125 C 30.796875 -0.191406 30.632812 0 30.3125 0 L 26.140625 0 C 25.753906 0 25.503906 -0.175781 25.390625 -0.53125 L 22.578125 -8.359375 C 22.515625 -8.503906 22.453125 -8.601562 22.390625 -8.65625 C 22.335938 -8.71875 22.222656 -8.75 22.046875 -8.75 L 9.859375 -8.75 C 9.585938 -8.75 9.410156 -8.632812 9.328125 -8.40625 L 6.46875 -0.4375 C 6.382812 -0.144531 6.132812 0 5.71875 0 Z M 20.6875 -12.890625 C 20.882812 -12.890625 21.003906 -12.941406 21.046875 -13.046875 C 21.097656 -13.148438 21.09375 -13.304688 21.03125 -13.515625 L 16.28125 -26.703125 C 16.1875 -26.910156 16.082031 -27.015625 15.96875 -27.015625 C 15.851562 -27.015625 15.75 -26.894531 15.65625 -26.65625 L 10.78125 -13.46875 L 10.734375 -13.203125 C 10.734375 -12.992188 10.863281 -12.890625 11.125 -12.890625 Z M 20.6875 -12.890625 "/></g></g></g><g fill="#000000" fill-opacity="1"><g transform="translate(147.683196, 236.978744)"><g><path d="M 3.78125 0 C 3.3125 0 3.078125 -0.234375 3.078125 -0.703125 L 3.078125 -22.65625 C 3.078125 -23.09375 3.269531 -23.3125 3.65625 -23.3125 L 7.125 -23.3125 C 7.476562 -23.3125 7.65625 -23.125 7.65625 -22.75 L 7.65625 -20.328125 C 7.65625 -20.148438 7.691406 -20.046875 7.765625 -20.015625 C 7.835938 -19.984375 7.945312 -20.046875 8.09375 -20.203125 C 9.625 -21.429688 10.972656 -22.332031 12.140625 -22.90625 C 13.316406 -23.476562 14.59375 -23.765625 15.96875 -23.765625 C 18.164062 -23.765625 19.890625 -23.15625 21.140625 -21.9375 C 22.390625 -20.71875 23.015625 -19.082031 23.015625 -17.03125 L 23.015625 -0.796875 C 23.015625 -0.265625 22.765625 0 22.265625 0 L 19.015625 0 C 18.566406 0 18.34375 -0.234375 18.34375 -0.703125 L 18.34375 -16.109375 C 18.34375 -17.421875 18 -18.4375 17.3125 -19.15625 C 16.625 -19.875 15.59375 -20.234375 14.21875 -20.234375 C 13.101562 -20.234375 12.066406 -19.976562 11.109375 -19.46875 C 10.160156 -18.957031 9.039062 -18.113281 7.75 -16.9375 L 7.75 -0.75 C 7.75 -0.488281 7.679688 -0.296875 7.546875 -0.171875 C 7.410156 -0.0546875 7.195312 0 6.90625 0 Z M 3.78125 0 "/></g></g></g><g fill="#000000" fill-opacity="1"><g transform="translate(173.550584, 236.978744)"><g><path d="M 7.875 -27.984375 C 7.875 -27.660156 7.804688 -27.425781 7.671875 -27.28125 C 7.546875 -27.132812 7.320312 -27.0625 7 -27.0625 L 3.734375 -27.0625 C 3.441406 -27.0625 3.238281 -27.125 3.125 -27.25 C 3.007812 -27.382812 2.953125 -27.597656 2.953125 -27.890625 L 2.953125 -31.90625 C 2.953125 -32.394531 3.171875 -32.640625 3.609375 -32.640625 L 7.265625 -32.640625 C 7.441406 -32.640625 7.585938 -32.570312 7.703125 -32.4375 C 7.816406 -32.3125 7.875 -32.144531 7.875 -31.9375 Z M 7.75 -0.84375 C 7.75 -0.519531 7.679688 -0.296875 7.546875 -0.171875 C 7.410156 -0.0546875 7.179688 0 6.859375 0 L 3.875 0 C 3.582031 0 3.375 -0.0507812 3.25 -0.15625 C 3.132812 -0.257812 3.078125 -0.441406 3.078125 -0.703125 L 3.078125 -22.65625 C 3.078125 -22.894531 3.117188 -23.0625 3.203125 -23.15625 C 3.296875 -23.257812 3.460938 -23.3125 3.703125 -23.3125 L 7.21875 -23.3125 C 7.570312 -23.3125 7.75 -23.109375 7.75 -22.703125 Z M 7.75 -0.84375 "/></g></g></g><g fill="#000000" fill-opacity="1"><g transform="translate(184.416645, 236.978744)"><g><path d="M 3.78125 0 C 3.3125 0 3.078125 -0.234375 3.078125 -0.703125 L 3.078125 -22.65625 C 3.078125 -23.09375 3.269531 -23.3125 3.65625 -23.3125 L 7.078125 -23.3125 C 7.429688 -23.3125 7.609375 -23.125 7.609375 -22.75 L 7.609375 -20.328125 C 7.609375 -20.148438 7.648438 -20.046875 7.734375 -20.015625 C 7.828125 -19.984375 7.929688 -20.046875 8.046875 -20.203125 C 9.515625 -21.429688 10.828125 -22.332031 11.984375 -22.90625 C 13.148438 -23.476562 14.40625 -23.765625 15.75 -23.765625 C 17.363281 -23.765625 18.695312 -23.394531 19.75 -22.65625 C 20.8125 -21.925781 21.5625 -20.972656 22 -19.796875 C 22.0625 -19.710938 22.117188 -19.671875 22.171875 -19.671875 C 22.296875 -19.671875 22.429688 -19.742188 22.578125 -19.890625 C 23.953125 -21.148438 25.269531 -22.109375 26.53125 -22.765625 C 27.789062 -23.429688 29.109375 -23.765625 30.484375 -23.765625 C 32.597656 -23.765625 34.25 -23.15625 35.4375 -21.9375 C 36.625 -20.71875 37.21875 -19.050781 37.21875 -16.9375 L 37.21875 -0.796875 C 37.21875 -0.265625 36.957031 0 36.4375 0 L 33.171875 0 C 32.941406 0 32.78125 -0.0507812 32.6875 -0.15625 C 32.601562 -0.257812 32.5625 -0.441406 32.5625 -0.703125 L 32.5625 -16.109375 C 32.5625 -17.421875 32.238281 -18.4375 31.59375 -19.15625 C 30.945312 -19.875 29.976562 -20.234375 28.6875 -20.234375 C 26.925781 -20.234375 25.050781 -19.3125 23.0625 -17.46875 C 22.851562 -17.257812 22.703125 -17.0625 22.609375 -16.875 C 22.523438 -16.6875 22.484375 -16.457031 22.484375 -16.1875 L 22.484375 -0.796875 C 22.484375 -0.265625 22.21875 0 21.6875 0 L 18.484375 0 C 18.035156 0 17.8125 -0.234375 17.8125 -0.703125 L 17.8125 -16.109375 C 17.8125 -17.421875 17.492188 -18.4375 16.859375 -19.15625 C 16.234375 -19.875 15.265625 -20.234375 13.953125 -20.234375 C 12.890625 -20.234375 11.90625 -19.976562 11 -19.46875 C 10.09375 -18.957031 9.007812 -18.113281 7.75 -16.9375 L 7.75 -0.75 C 7.75 -0.488281 7.679688 -0.296875 7.546875 -0.171875 C 7.410156 -0.0546875 7.195312 0 6.90625 0 Z M 3.78125 0 "/></g></g></g><g fill="#000000" fill-opacity="1"><g transform="translate(224.449506, 236.978744)"><g><path d="M 7.875 -27.984375 C 7.875 -27.660156 7.804688 -27.425781 7.671875 -27.28125 C 7.546875 -27.132812 7.320312 -27.0625 7 -27.0625 L 3.734375 -27.0625 C 3.441406 -27.0625 3.238281 -27.125 3.125 -27.25 C 3.007812 -27.382812 2.953125 -27.597656 2.953125 -27.890625 L 2.953125 -31.90625 C 2.953125 -32.394531 3.171875 -32.640625 3.609375 -32.640625 L 7.265625 -32.640625 C 7.441406 -32.640625 7.585938 -32.570312 7.703125 -32.4375 C 7.816406 -32.3125 7.875 -32.144531 7.875 -31.9375 Z M 7.75 -0.84375 C 7.75 -0.519531 7.679688 -0.296875 7.546875 -0.171875 C 7.410156 -0.0546875 7.179688 0 6.859375 0 L 3.875 0 C 3.582031 0 3.375 -0.0507812 3.25 -0.15625 C 3.132812 -0.257812 3.078125 -0.441406 3.078125 -0.703125 L 3.078125 -22.65625 C 3.078125 -22.894531 3.117188 -23.0625 3.203125 -23.15625 C 3.296875 -23.257812 3.460938 -23.3125 3.703125 -23.3125 L 7.21875 -23.3125 C 7.570312 -23.3125 7.75 -23.109375 7.75 -22.703125 Z M 7.75 -0.84375 "/></g></g></g><g fill="#000000" fill-opacity="1"><g transform="translate(235.315567, 236.978744)"><g><path d="M 23.140625 -1.09375 C 23.410156 -0.75 23.546875 -0.488281 23.546875 -0.3125 C 23.546875 -0.101562 23.335938 0 22.921875 0 L 19.046875 0 C 18.546875 0 18.179688 -0.160156 17.953125 -0.484375 L 12.28125 -8.359375 C 12.101562 -8.617188 11.957031 -8.75 11.84375 -8.75 C 11.78125 -8.75 11.628906 -8.617188 11.390625 -8.359375 L 5.5 -0.484375 C 5.320312 -0.160156 4.96875 0 4.4375 0 L 1.890625 0 C 1.390625 0 1.140625 -0.144531 1.140625 -0.4375 C 1.140625 -0.675781 1.257812 -0.957031 1.5 -1.28125 L 9.28125 -11.171875 C 9.425781 -11.410156 9.5 -11.585938 9.5 -11.703125 C 9.5 -11.878906 9.410156 -12.070312 9.234375 -12.28125 L 1.765625 -22.4375 C 1.671875 -22.582031 1.625 -22.703125 1.625 -22.796875 C 1.625 -23.140625 1.832031 -23.3125 2.25 -23.3125 L 5.890625 -23.3125 C 6.160156 -23.3125 6.367188 -23.273438 6.515625 -23.203125 C 6.660156 -23.128906 6.804688 -23.007812 6.953125 -22.84375 L 12.3125 -15.484375 C 12.4375 -15.304688 12.554688 -15.21875 12.671875 -15.21875 C 12.785156 -15.21875 12.890625 -15.304688 12.984375 -15.484375 L 18.171875 -22.84375 C 18.285156 -23.007812 18.414062 -23.128906 18.5625 -23.203125 C 18.707031 -23.273438 18.929688 -23.3125 19.234375 -23.3125 L 22.046875 -23.3125 C 22.398438 -23.3125 22.578125 -23.195312 22.578125 -22.96875 C 22.578125 -22.882812 22.515625 -22.753906 22.390625 -22.578125 L 15.21875 -12.984375 C 15.070312 -12.804688 15 -12.628906 15 -12.453125 C 15 -12.304688 15.070312 -12.113281 15.21875 -11.875 Z M 23.140625 -1.09375 "/></g></g></g><g fill="#c64fff" fill-opacity="1"><g transform="translate(187.495162, 260.428752)"><g/></g></g><g clip-path="url(#id1)"><g clip-path="url(#id2)"><path fill="url(#id3)" d="M 228.128906 111.394531 L 147.136719 111.394531 L 147.136719 188.640625 L 228.128906 188.640625 Z M 228.128906 111.394531 " fill-rule="nonzero"/></g></g></svg>